<svg xmlns="http://www.w3.org/2000/svg" xmlns:xlink="http://www.w3.org/1999/xlink" xmlns:serif="http://www.serif.com/" version="1.1" xml:space="preserve" style="fill-rule:evenodd;clip-rule:evenodd;stroke-linejoin:round;stroke-miterlimit:2;" viewBox="73.56 24.76 910.96 294.86">
    <g transform="matrix(1,0,0,1,34.2412,-326.953)">
        <g id="flash.svg" transform="matrix(0.670482,0.00213525,-0.00213525,0.670482,137.949,499.143)">
            <g transform="matrix(1,0,0,1,-256,-256)">
                <g>
                    <path d="M280.564,38.764L111.379,285.866C109.229,289.007 109.009,292.812 110.784,296.179C112.559,299.546 115.823,301.515 119.63,301.515L245.059,301.515L212.366,469.455C211.913,471.781 213.102,474.044 215.273,474.993C217.444,475.941 219.913,475.274 221.311,473.36L400.446,228.179C402.723,225.062 403.035,221.194 401.288,217.752C399.54,214.31 396.232,212.28 392.372,212.28L267.053,212.28L289.646,42.247C289.955,39.924 288.668,37.76 286.48,36.92C284.292,36.082 281.888,36.831 280.564,38.764Z" style="fill:rgb(255,173,51);"/>
                    <path d="M280.564,38.764L242.773,93.959L227.803,206.622C227.606,208.102 228.015,209.452 228.998,210.575C229.981,211.698 231.266,212.28 232.759,212.28L267.052,212.28L289.645,42.247C289.954,39.924 288.667,37.76 286.479,36.92C284.292,36.082 281.888,36.831 280.564,38.764ZM222.61,416.831L372.06,212.28L392.371,212.28C396.231,212.28 399.539,214.31 401.287,217.752C403.035,221.194 402.722,225.062 400.445,228.179L221.31,473.36C219.912,475.273 217.444,475.941 215.272,474.993C213.101,474.045 211.912,471.781 212.365,469.456L222.61,416.831Z" style="fill:rgb(255,152,25);"/>
                </g>
            </g>
        </g>
        <g transform="matrix(0.845097,0,0,0.845097,111.423,62.9317)">
            <g transform="matrix(0.823599,0,0,0.823599,57.4063,285.639)">
                <path d="M196.512,412.411L227.562,412.411L234.912,386.611L289.212,386.611C291.912,386.611 294.612,386.211 297.312,385.411C300.012,384.611 302.487,383.461 304.737,381.961C306.987,380.461 308.962,378.636 310.662,376.486C312.362,374.336 313.612,371.911 314.412,369.211L325.662,329.761C326.462,327.061 326.637,324.636 326.187,322.486C325.737,320.336 324.812,318.511 323.412,317.011C322.012,315.511 320.187,314.361 317.937,313.561C315.687,312.761 313.212,312.361 310.512,312.361L225.162,312.361L196.512,412.411ZM242.712,359.611L248.562,339.361L291.912,339.361L286.062,359.611L242.712,359.611Z" style="fill-rule:nonzero;"/>
                <path d="M350.262,412.411L319.212,412.411L347.862,312.361L433.212,312.361C435.912,312.361 438.387,312.761 440.637,313.561C442.887,314.361 444.712,315.511 446.112,317.011C447.512,318.511 448.437,320.336 448.887,322.486C449.337,324.636 449.162,327.061 448.362,329.761L437.112,369.211C436.412,371.611 435.262,373.786 433.662,375.736C432.062,377.686 430.212,379.386 428.112,380.836C426.012,382.286 423.737,383.486 421.287,384.436C418.837,385.386 416.412,386.061 414.012,386.461L430.962,412.411L395.712,412.411L377.712,386.611L357.612,386.611L350.262,412.411ZM371.262,339.361L365.412,359.611L408.762,359.611L414.612,339.361L371.262,339.361Z" style="fill-rule:nonzero;"/>
                <path d="M523.962,385.411L480.612,385.411L493.812,339.361L537.162,339.361L523.962,385.411ZM570.912,329.761C571.712,327.061 571.887,324.636 571.437,322.486C570.987,320.336 570.062,318.511 568.662,317.011C567.262,315.511 565.437,314.361 563.187,313.561C560.937,312.761 558.462,312.361 555.762,312.361L490.512,312.361C487.812,312.361 485.112,312.761 482.412,313.561C479.712,314.361 477.237,315.511 474.987,317.011C472.737,318.511 470.787,320.336 469.137,322.486C467.487,324.636 466.262,327.061 465.462,329.761L446.712,395.011C445.912,397.711 445.762,400.136 446.262,402.286C446.762,404.436 447.712,406.261 449.112,407.761C450.512,409.261 452.312,410.411 454.512,411.211C456.712,412.011 459.162,412.411 461.862,412.411L527.112,412.411C529.812,412.411 532.512,412.011 535.212,411.211C537.912,410.411 540.387,409.261 542.637,407.761C544.887,406.261 546.837,404.436 548.487,402.286C550.137,400.136 551.362,397.711 552.162,395.011L570.912,329.761Z" style="fill-rule:nonzero;"/>
                <path d="M629.262,385.411L572.262,385.411L564.462,412.411L632.412,412.411C635.112,412.411 637.812,412.011 640.512,411.211C643.212,410.411 645.687,409.261 647.937,407.761C650.187,406.261 652.137,404.436 653.787,402.286C655.437,400.136 656.662,397.711 657.462,395.011L681.162,312.361L637.362,312.361L644.562,331.711L629.262,385.411Z" style="fill-rule:nonzero;"/>
                <path d="M669.762,412.411L698.412,312.361L792.762,312.361L789.612,323.311C789.112,325.011 788.462,326.786 787.662,328.636C786.862,330.486 785.937,332.211 784.887,333.811C783.837,335.411 782.637,336.736 781.287,337.786C779.937,338.836 778.512,339.361 777.012,339.361L721.812,339.361L718.962,348.961L773.112,348.961L765.462,375.961L711.312,375.961L708.612,385.411L771.912,385.411L764.112,412.411L669.762,412.411Z" style="fill-rule:nonzero;"/>
                <path d="M801.462,412.411C798.762,412.411 796.312,412.011 794.112,411.211C791.912,410.411 790.112,409.261 788.712,407.761C787.312,406.261 786.362,404.436 785.862,402.286C785.362,400.136 785.512,397.711 786.312,395.011L805.062,329.761C805.862,327.061 807.087,324.636 808.737,322.486C810.387,320.336 812.337,318.511 814.587,317.011C816.837,315.511 819.312,314.361 822.012,313.561C824.712,312.761 827.412,312.361 830.112,312.361L904.362,312.361L901.212,323.311C900.712,325.011 900.062,326.786 899.262,328.636C898.462,330.486 897.537,332.211 896.487,333.811C895.437,335.411 894.237,336.736 892.887,337.786C891.537,338.836 890.112,339.361 888.612,339.361L833.412,339.361L820.212,385.411L883.512,385.411L875.712,412.411L801.462,412.411Z" style="fill-rule:nonzero;"/>
                <path d="M913.962,339.361L921.612,312.361L1017.61,312.361L1014.46,323.311C1013.96,325.011 1013.31,326.786 1012.51,328.636C1011.71,330.486 1010.79,332.211 1009.74,333.811C1008.69,335.411 1007.49,336.736 1006.14,337.786C1004.79,338.836 1003.36,339.361 1001.86,339.361L977.412,339.361L956.412,412.411L925.362,412.411L946.362,339.361L913.962,339.361Z" style="fill-rule:nonzero;"/>
                <path d="M1036.81,375.961L1086.31,375.961L1083.61,385.411L1014.01,385.411L1006.21,412.411L1086.76,412.411C1089.46,412.411 1092.16,412.011 1094.86,411.211C1097.56,410.411 1100.04,409.261 1102.29,407.761C1104.54,406.261 1106.49,404.436 1108.14,402.286C1109.79,400.136 1111.01,397.711 1111.81,395.011L1120.06,366.361C1120.86,363.661 1121.04,361.236 1120.59,359.086C1120.14,356.936 1119.21,355.111 1117.81,353.611C1116.41,352.111 1114.59,350.961 1112.34,350.161C1110.09,349.361 1107.61,348.961 1104.91,348.961L1055.41,348.961L1058.26,339.361L1119.76,339.361C1121.26,339.361 1122.69,338.836 1124.04,337.786C1125.39,336.736 1126.59,335.411 1127.64,333.811C1128.69,332.211 1129.61,330.486 1130.41,328.636C1131.21,326.786 1131.86,325.011 1132.36,323.311L1135.51,312.361L1054.96,312.361C1052.26,312.361 1049.56,312.761 1046.86,313.561C1044.16,314.361 1041.69,315.511 1039.44,317.011C1037.19,318.511 1035.24,320.336 1033.59,322.486C1031.94,324.636 1030.71,327.061 1029.91,329.761L1021.66,358.561C1020.86,361.261 1020.69,363.686 1021.14,365.836C1021.59,367.986 1022.51,369.811 1023.91,371.311C1025.31,372.811 1027.14,373.961 1029.39,374.761C1031.64,375.561 1034.11,375.961 1036.81,375.961Z" style="fill-rule:nonzero;"/>
            </g>
            <g transform="matrix(1,0,0,1,-195.124,119.689)">
                <path d="M226.512,319.178L236.712,283.178L364.912,283.178L360.712,297.778C360.045,300.045 359.178,302.411 358.112,304.878C357.045,307.345 355.812,309.645 354.412,311.778C353.012,313.911 351.412,315.678 349.612,317.078C347.812,318.478 345.912,319.178 343.912,319.178L311.112,319.178L283.112,416.578L326.912,416.578L230.112,509.778L273.512,440.578L234.912,440.578L269.712,319.178L226.512,319.178Z" style="fill-rule:nonzero;"/>
                <path d="M321.112,440.578L374.512,440.578L331.112,509.778L427.912,416.578L384.112,416.578L397.312,397.778L461.712,397.778L464.312,416.578L510.112,416.578L490.312,283.178L406.112,283.178L415.712,308.978L321.112,440.578ZM451.512,321.978L456.712,361.578L423.112,361.578L451.512,321.978Z" style="fill-rule:nonzero;"/>
                <path d="M563.912,367.978L629.912,367.978L626.312,380.578L533.512,380.578L523.112,416.578L630.512,416.578C634.112,416.578 637.712,416.045 641.312,414.978C644.912,413.911 648.212,412.378 651.212,410.378C654.212,408.378 656.812,405.945 659.012,403.078C661.212,400.211 662.845,396.978 663.912,393.378L674.912,355.178C675.978,351.578 676.212,348.345 675.612,345.478C675.012,342.611 673.778,340.178 671.912,338.178C670.045,336.178 667.612,334.645 664.612,333.578C661.612,332.511 658.312,331.978 654.712,331.978L588.712,331.978L592.512,319.178L674.512,319.178C676.512,319.178 678.412,318.478 680.212,317.078C682.012,315.678 683.612,313.911 685.012,311.778C686.412,309.645 687.645,307.345 688.712,304.878C689.778,302.411 690.645,300.045 691.312,297.778L695.512,283.178L588.112,283.178C584.512,283.178 580.912,283.711 577.312,284.778C573.712,285.845 570.412,287.378 567.412,289.378C564.412,291.378 561.812,293.811 559.612,296.678C557.412,299.545 555.778,302.778 554.712,306.378L543.712,344.778C542.645,348.378 542.412,351.611 543.012,354.478C543.612,357.345 544.845,359.778 546.712,361.778C548.578,363.778 551.012,365.311 554.012,366.378C557.012,367.445 560.312,367.978 563.912,367.978Z" style="fill-rule:nonzero;"/>
                <path d="M718.112,308.978L708.512,283.178L766.912,283.178L744.912,359.778L822.712,283.178L869.912,283.178L805.312,347.978L831.712,416.578L786.112,416.578L772.312,380.578L734.312,416.578L687.312,416.578L718.112,308.978Z" style="fill-rule:nonzero;"/>
                <path d="M858.712,416.578L984.512,416.578L994.912,380.578L910.512,380.578L914.112,367.978L986.312,367.978L996.512,331.978L924.312,331.978L928.112,319.178L1001.71,319.178C1003.71,319.178 1005.61,318.478 1007.41,317.078C1009.21,315.678 1010.81,313.911 1012.21,311.778C1013.61,309.645 1014.85,307.345 1015.91,304.878C1016.98,302.411 1017.85,300.045 1018.51,297.778L1022.71,283.178L879.912,283.178L889.512,308.978L858.712,416.578Z" style="fill-rule:nonzero;"/>
                <path d="M1045.31,308.978L1014.51,416.578L1055.91,416.578L1065.71,382.178L1092.51,382.178L1116.51,416.578L1163.51,416.578L1140.91,381.978C1144.11,381.445 1147.35,380.545 1150.61,379.278C1153.88,378.011 1156.91,376.411 1159.71,374.478C1162.51,372.545 1164.98,370.278 1167.11,367.678C1169.25,365.078 1170.78,362.178 1171.71,358.978L1186.71,306.378C1187.78,302.778 1188.01,299.545 1187.41,296.678C1186.81,293.811 1185.58,291.378 1183.71,289.378C1181.85,287.378 1179.41,285.845 1176.41,284.778C1173.41,283.711 1170.11,283.178 1166.51,283.178L1035.71,283.178L1045.31,308.978ZM1083.91,319.178L1141.71,319.178L1133.91,346.178L1076.11,346.178L1083.91,319.178Z" style="fill-rule:nonzero;"/>
            </g>
        </g>
    </g>
</svg>
