<svg width="604px" height="270px" xmlns="http://www.w3.org/2000/svg" preserveAspectRatio="xMidYMid meet" version="1.0" transform="rotate(0) scale(1, 1)">

 <g>
  <title>Layer 1</title>
  <g id="svg_1" fill="#000000" transform="translate(0.000000,270.000000) scale(0.100000,-0.100000)">
   <path id="svg_2" d="m2320,2668c-106,-49 -361,-130 -785,-252c-220,-63 -456,-133 -525,-154c-567,-181 -868,-356 -924,-539c-13,-40 28,-29 47,13c44,91 168,187 359,278c217,104 445,180 1013,336c182,50 389,108 462,130c72,22 135,40 138,40c4,0 -25,-35 -65,-77c-90,-96 -201,-245 -359,-480l-123,-183l-38,0c-85,0 -122,-44 -52,-62c17,-5 32,-13 32,-19c0,-14 -46,-81 -152,-221c-257,-338 -592,-679 -770,-782c-48,-28 -63,-56 -31,-56c23,0 116,54 188,109c202,154 495,469 751,809c47,61 90,112 95,112c6,0 20,-5 32,-11c96,-50 177,-165 230,-325c37,-111 102,-404 95,-426c-2,-6 -74,-26 -159,-44c-403,-83 -1015,-217 -1344,-293c-116,-27 -259,-59 -318,-71c-98,-21 -108,-25 -105,-44c2,-12 10,-20 18,-20c8,1 148,32 310,68c411,93 843,188 1120,247c129,27 285,61 347,74c62,14 121,25 131,25c15,0 23,-16 39,-77l21,-78l-46,-54c-118,-135 -188,-247 -226,-363c-46,-135 -29,-214 54,-256c79,-41 161,-14 275,90c49,45 177,195 200,236c1,1 35,-13 76,-32c115,-53 198,-69 326,-64c79,3 123,11 164,26c71,28 97,47 84,61c-7,7 -30,2 -75,-16c-141,-58 -372,-24 -518,75c-10,7 5,38 61,128c41,65 116,195 167,287c57,105 101,172 114,178c19,8 212,43 641,115c77,13 159,24 182,24c23,0 52,4 65,9c13,5 102,19 198,31c146,18 180,20 211,10c51,-17 152,-8 214,20c49,21 249,49 262,36c3,-3 -4,-38 -16,-78c-11,-40 -21,-99 -21,-131c0,-90 27,-126 93,-127c72,0 186,73 401,258c98,85 99,85 150,83c160,-7 426,-60 556,-111c130,-51 133,-54 175,-152c81,-189 173,-318 226,-318c32,0 39,15 39,78c0,96 -99,241 -224,327c-51,35 -56,42 -91,134c-73,191 -164,484 -270,868l-36,133l41,73c44,82 49,111 21,127c-31,16 -59,12 -115,-16c-220,-110 -580,-501 -760,-826c-21,-37 -50,-78 -66,-91c-45,-39 -158,-112 -241,-156c-71,-38 -87,-43 -193,-53c-64,-6 -119,-8 -123,-5c-28,28 27,167 89,222c51,47 83,54 113,25c26,-24 45,-20 45,10c0,28 -47,60 -89,60c-35,0 -119,-43 -135,-69c-11,-16 -245,-194 -321,-243c-79,-51 -123,-68 -171,-68c-53,0 -69,34 -70,151c-1,54 -5,102 -8,108c-24,38 -119,-12 -228,-117c-37,-36 -68,-62 -68,-58c0,10 63,108 112,174c32,43 37,56 28,68c-18,21 -38,17 -63,-11c-21,-24 -418,-246 -426,-239c-2,2 22,54 54,115c52,102 56,112 41,127c-18,18 -4,28 -160,-117c-104,-97 -181,-151 -215,-151c-22,0 -23,3 -18,40c6,44 64,165 104,218c25,34 25,62 -1,62c-46,0 -166,-200 -166,-275c0,-123 114,-114 269,22c27,24 52,43 55,43c4,0 -11,-35 -33,-78c-35,-69 -45,-81 -93,-107c-29,-16 -107,-65 -173,-109l-120,-80l-155,-32c-85,-18 -156,-31 -158,-29c-2,2 -19,77 -38,167c-73,353 -149,519 -281,610l-48,33l105,16c346,54 554,158 902,451c154,129 254,200 322,229c39,16 56,28 56,41c0,23 -17,23 -81,-2c-77,-31 -166,-92 -339,-234c-256,-210 -410,-304 -599,-366c-121,-39 -351,-82 -351,-65c0,9 206,307 294,425c99,133 303,335 391,386c69,40 90,68 63,85c-17,11 -13,12 -88,-23zm3101,-350c-21,-35 -41,-48 -41,-28c0,10 -3,10 -15,0c-9,-8 -13,-21 -9,-35c4,-18 -9,-39 -64,-101c-122,-138 -569,-561 -580,-549c-7,7 150,222 243,332c165,196 411,413 468,413c18,0 18,-1 -2,-32zm4,-303c61,-228 139,-487 208,-687c41,-120 59,-188 52,-188c-7,0 -38,11 -70,25c-122,55 -314,98 -488,111c-48,4 -86,11 -85,15c5,15 142,120 196,151c53,31 62,42 38,51c-22,9 -93,-34 -201,-120l-104,-83l-210,0c-126,0 -211,4 -211,9c0,6 15,43 34,84c32,71 39,78 242,257c115,101 286,261 379,354c94,94 173,169 176,166c4,-3 23,-68 44,-145zm-2332,-697c-27,-47 -55,-103 -62,-126c-13,-39 -10,-72 6,-72c4,0 51,41 103,92c98,94 197,174 205,166c3,-2 9,-34 14,-71c5,-37 17,-81 25,-99c9,-17 13,-35 9,-38c-5,-4 -109,-23 -233,-43c-124,-21 -283,-48 -355,-61c-71,-13 -132,-22 -135,-19c-9,8 62,129 84,143c75,47 380,219 383,216c2,-2 -18,-42 -44,-88zm1386,18c-24,-55 -30,-58 -95,-54l-48,3l79,52c44,29 81,51 82,49c2,-2 -6,-24 -18,-50zm-572,-26c-2,-69 -2,-70 -32,-75c-139,-22 -177,-27 -180,-24c-2,3 196,160 212,168c1,1 1,-30 0,-69zm969,-106c-77,-71 -199,-166 -261,-203c-43,-26 -69,-35 -104,-35l-46,-1l-3,38c-3,40 40,211 60,234c8,10 58,13 207,13l196,-1l-49,-45zm-2256,-110c0,-4 -9,-21 -20,-39c-17,-27 -29,-34 -66,-40c-25,-3 -48,-5 -50,-2c-5,5 117,87 129,87c4,0 7,-3 7,-6zm3255,-141c44,-43 77,-87 96,-127c29,-61 37,-110 20,-120c-11,-7 -54,36 -93,92c-27,39 -108,201 -108,216c0,17 23,0 85,-61zm-3325,11c0,-19 -238,-439 -282,-497c-20,-26 -41,-14 -97,57c-57,71 -96,147 -88,169c7,18 199,185 255,222c48,31 212,69 212,49zm-402,-134l-93,-80l-18,57c-9,31 -16,58 -14,60c5,4 177,41 200,42c10,1 -23,-34 -75,-79zm-98,-257c18,-32 62,-88 98,-125l65,-67l-43,-58c-81,-108 -150,-182 -211,-222c-138,-92 -238,-27 -194,125c19,66 63,158 108,224c31,46 137,180 142,180c2,0 17,-26 35,-57z"/>
  </g>
  <path stroke-width="5" d="m390.31454,100.18546c0,1 0.70547,3.34619 3,5c1.814,1.30745 7,2 12,2c5,0 11.06134,-0.82462 17,-3c5.05658,-1.85227 13,-6 18,-9l3,-3l1,0" id="svg_8" stroke="#000000" fill="none"/>
  <polyline stroke-linecap="round" id="svg_9" points="390.12921220064163,100.1322792172432 390.49777299165726,100.1322792172432 " stroke-width="5" stroke="#000000" fill="none"/>
  <polyline stroke-linecap="round" id="svg_15" points="442.8312759399414,92.02426815032959 443.19983673095703,92.02426815032959 " stroke-width="5" stroke="#000000" fill="none"/>
 </g>
</svg>
